<svg width="32" height="32" viewBox="0 0 32 32" fill="none" xmlns="http://www.w3.org/2000/svg">
<path d="M15.9999 16.6252L15.9999 2.62" stroke="black" stroke-width="1.5" stroke-linecap="round"/>
<path d="M16 16.6252L3.88 23.6279" stroke="black" stroke-width="1.5" stroke-linecap="round"/>
<path d="M16 16.6252L28.12 23.6279" stroke="black" stroke-width="1.5" stroke-linecap="round"/>
<path d="M16.7497 19.6263C16.7497 20.0407 16.414 20.3766 15.9999 20.3766C15.5859 20.3766 15.2502 20.0407 15.2502 19.6263C15.2502 19.212 15.5859 18.8761 15.9999 18.8761C16.414 18.8761 16.7497 19.212 16.7497 19.6263Z" fill="black"/>
<path d="M16.7497 22.6275C16.7497 23.0418 16.414 23.3778 15.9999 23.3778C15.5859 23.3778 15.2502 23.0418 15.2502 22.6275C15.2502 22.2131 15.5859 21.8772 15.9999 21.8772C16.414 21.8772 16.7497 22.2131 16.7497 22.6275Z" fill="black"/>
<path d="M16.7497 25.6286C16.7497 26.043 16.414 26.3789 15.9999 26.3789C15.5859 26.3789 15.2502 26.043 15.2502 25.6286C15.2502 25.2142 15.5859 24.8783 15.9999 24.8783C16.414 24.8783 16.7497 25.2142 16.7497 25.6286Z" fill="black"/>
<path d="M16.7497 28.6297C16.7497 29.0441 16.414 29.38 15.9999 29.38C15.5859 29.38 15.2502 29.0441 15.2502 28.6297C15.2502 28.2154 15.5859 27.8794 15.9999 27.8794C16.414 27.8794 16.7497 28.2154 16.7497 28.6297Z" fill="black"/>
<path d="M13.028 15.7989C12.6694 15.5917 12.5465 15.1328 12.7535 14.774C12.9606 14.4151 13.4191 14.2922 13.7777 14.4994C14.1363 14.7066 14.2591 15.1654 14.0521 15.5243C13.8451 15.8831 13.3865 16.0061 13.028 15.7989Z" fill="black"/>
<path d="M10.4308 14.2983C10.0722 14.0912 9.94933 13.6323 10.1564 13.2734C10.3634 12.9146 10.8219 12.7916 11.1805 12.9988C11.5391 13.206 11.662 13.6649 11.4549 14.0237C11.2479 14.3826 10.7894 14.5055 10.4308 14.2983Z" fill="black"/>
<path d="M7.83362 12.7978C7.47502 12.5906 7.35216 12.1317 7.5592 11.7729C7.76623 11.414 8.22476 11.2911 8.58335 11.4982C8.94194 11.7054 9.0648 12.1643 8.85777 12.5231C8.65074 12.882 8.19221 13.005 7.83362 12.7978Z" fill="black"/>
<path d="M5.23648 11.2972C4.87789 11.09 4.75502 10.6312 4.96206 10.2723C5.16909 9.91346 5.62762 9.79051 5.98621 9.99769C6.3448 10.2049 6.46766 10.6637 6.26063 11.0226C6.0536 11.3814 5.59507 11.5044 5.23648 11.2972Z" fill="black"/>
<path d="M18.2223 14.4749C18.5809 14.2677 19.0394 14.3907 19.2464 14.7496C19.4535 15.1084 19.3306 15.5673 18.972 15.7745C18.6134 15.9816 18.1549 15.8587 17.9479 15.4998C17.7408 15.141 17.8637 14.6821 18.2223 14.4749Z" fill="black"/>
<path d="M20.8194 12.9744C21.178 12.7672 21.6366 12.8901 21.8436 13.249C22.0506 13.6078 21.9278 14.0667 21.5692 14.2739C21.2106 14.4811 20.7521 14.3581 20.545 13.9993C20.338 13.6404 20.4609 13.1815 20.8194 12.9744Z" fill="black"/>
<path d="M23.4166 11.4738C23.7752 11.2666 24.2337 11.3896 24.4407 11.7484C24.6478 12.1073 24.5249 12.5661 24.1663 12.7733C23.8077 12.9805 23.3492 12.8576 23.1422 12.4987C22.9351 12.1399 23.058 11.681 23.4166 11.4738Z" fill="black"/>
<path d="M26.0137 9.97325C26.3723 9.76607 26.8308 9.88902 27.0378 10.2479C27.2449 10.6067 27.122 11.0656 26.7634 11.2728C26.4048 11.48 25.9463 11.357 25.7393 10.9982C25.5322 10.6393 25.6551 10.1804 26.0137 9.97325Z" fill="black"/>
</svg>
